<svg xmlns="http://www.w3.org/2000/svg" viewBox="0 0 43.8076 68.10324"><defs><style>.cls-1{fill:#d44f47;}.cls-2{fill:#2a0f10;}.cls-3{fill:#6f5e40;}.cls-4{fill:#3f4448;}.cls-5{fill:#de2927;}.cls-6{fill:#52585d;}.cls-7{fill:#d6d625;}.cls-7,.cls-9{fill-rule:evenodd;}.cls-8{fill:#272a2b;}.cls-9{fill:#600c0d;}</style></defs><title>Asset 20xxxhdpi</title><g id="Layer_2" data-name="Layer 2"><g id="Layer_1-2" data-name="Layer 1"><path class="cls-1" d="M21.90374.465A21.43877,21.43877,0,0,0,.465,21.90376c0,16.74185,21.43875,45.73456,21.43875,45.73456S43.34248,37.95775,43.34248,21.90376A21.43877,21.43877,0,0,0,21.90374.465Zm0,35.64482a14.20605,14.20605,0,1,1,14.206-14.206A14.206,14.206,0,0,1,21.90374,36.10979Z"/><path class="cls-2" d="M21.9038,68.10324a.46485.46485,0,0,1-.37392-.18863C20.65081,66.726,0,38.60671,0,21.9038a21.9038,21.9038,0,0,1,43.8076,0c0,16.02018-20.64778,44.78976-21.52686,46.00658a.46486.46486,0,0,1-.37437.19286Zm0-67.17315A20.99739,20.99739,0,0,0,.93009,21.9038c0,15.17758,18.10411,40.95344,20.96947,44.93691,2.84765-4.04524,20.978-30.37818,20.978-44.93691A20.99739,20.99739,0,0,0,21.9038.93009Zm0,35.64477A14.67106,14.67106,0,1,1,36.57486,21.9038,14.68769,14.68769,0,0,1,21.9038,36.57486Zm0-28.412a13.741,13.741,0,1,0,13.741,13.741A13.75659,13.75659,0,0,0,21.9038,8.16283Z"/><g id="layer2"><path id="path6-1" class="cls-3" d="M19.98458,31.18532c-1.07388-.09467-1.28517-.42594-1.79894-.32693a3.74175,3.74175,0,0,1-1.57009.078c1.14541-.7167,2.12666-.3897,2.40449-1.90437-.04833,1.36656,1.418,2.19325.96454,2.15328"/><path id="path6" class="cls-3" d="M21.11118,31.114c.23019-1.37339.527-2.7969,1.19724-3.25.00084.053.21724.11187.18114.14379-.482.42636.65315.97038.90044,1.936C21.88331,28.80775,21.63452,30.29507,21.11118,31.114Z"/><path id="path12-2" class="cls-3" d="M23.95009,26.46336c-.62369.30857-2.00421,1.59682-1.92,1.76693s1.22319-.51465,1.84688-.82322.37145-1.09129.07317-.94371"/><path id="path12-2-1" class="cls-3" d="M19.44166,28.08487c-.2948.518-.77419,1.73608-.63289,1.81649s.80623-.711,1.101-1.229-.32714-.83521-.46814-.58746"/><path id="path12-7" class="cls-4" d="M18.80551,23.79024c.60465,1.40325,1.48169,4.64228,1.09895,4.8072s-1.714-1.721-2.31865-3.12422.93051-2.3541,1.2197-1.683"/><path id="path12" class="cls-4" d="M20.26694,24.40676c1.38322.44528,4.1947,1.59658,3.99267,2.47747-.0886.38632-2.16772-.10553-3.55094-.55081s-1.10327-2.13962-.44173-1.92666"/><path id="path10" class="cls-4" d="M17.09734,26.50225a3.50983,3.50983,0,0,1-3.69176-2.68349c-.34691-1.28664-1.05007-2.98654.29351-4.7201.51116-.66361.82193-.00186,1.189.3424.49646.46558,1.13613-.09823,3.11511-.09823,2.21627-.0289,9.42022-.30027,9.42022,3.70306C27.504,26.839,19.31361,26.50225,17.09734,26.50225Z"/><path id="path24" class="cls-5" d="M14.85635,19.398c-.52759-.42615-.0909-1.45026.23206-2.46891a2.4778,2.4778,0,0,0-.57283-2.51381,1.82662,1.82662,0,0,0-1.61235-.21682,1.963,1.963,0,0,0-.835.62541.6233.6233,0,0,0-.05247.79884,2.17685,2.17685,0,0,0,.7004.16456c1.02289.08265,1.17795.32661.95607,1.13186a18.07666,18.07666,0,0,0-.39683,1.85464c-.31175,1.07932-.57493,2.803-.28146,2.87.41328-.054.95307-1.31776,1.31414-1.737C14.69691,19.45537,14.65354,19.4118,14.85635,19.398Z"/><path id="rect4521-3" class="cls-6" d="M28.6858,15.62986a13.9003,13.9003,0,0,0-2.80443,4.6104c-.94191,2.459-.74151,3.59712,1.19862,4.08241a19.20653,19.20653,0,0,0,4.8412.34849c.1333-.15167.31376-.3145-.08717-.47978a1.23213,1.23213,0,0,0,1.544-.63024c.19791-.28614.75631-.67168-.023-.78093,1.12785.11483.787-.31272.83763-.80655.04115-.4014.345-.93156-.3558-.87369.71619.01083.42622-.61189.39445-.943-.04715-.49152-.15124-.77056-.87513-.64422.92965-.074.70243-.643.505-1.05551-.21825-.456-.32239-1.00562-1.32346-.36625,1.38206-.60706.68786-1.19066.33553-1.62322-.32394-.39769-.45917-.86717-1.41482.0596.776-.79165.03538-1.01375-.55643-1.29414-.74506-.353-1.55721-.57292-2.21614.39667Z"/><path id="rect4521-3-3" class="cls-4" d="M29.7745,15.15622a1.13158,1.13158,0,0,0-.90645.59821.22081.22081,0,0,1-.02738.033,13.75073,13.75073,0,0,0-2.75375,4.53364,4.77414,4.77414,0,0,0-.47394,2.64352c.15162.56577.58774.91055,1.52011,1.14376a19.38947,19.38947,0,0,0,4.6846.34475l.01124-.01334c-.304-.26742-.22409-.29314-2.13534-.46551a15.74642,15.74642,0,0,0,3.10076-.07724,1.48569,1.48569,0,0,0,.40162-.46129,2.81431,2.81431,0,0,1,.20432-.24645,1.06509,1.06509,0,0,0,.10532-.14113,14.44266,14.44266,0,0,0-1.97648-.12535,22.82258,22.82258,0,0,0,2.37178-.36543c.08306-.0206.066-.02107.07161-.03511a.645.645,0,0,0,.00564-.18325,2.15281,2.15281,0,0,1-.00564-.38758c.02521-.24585.10319-.48234.09971-.57855-.00168-.04811.00045-.03306-.0035-.03581-.27294-.05919-.16712-.09668-1.37876-.03064,1.14683-.20644,1.35465-.45626,1.37244-.47138s.02752-.03154.03159-.09338c.00818-.12368-.0621-.34761-.08285-.56381a.75048.75048,0,0,0-.11515-.41425c-.4349-.0866-.34607-.27631-1.387.10957a12.46035,12.46035,0,0,0,1.22408-.68251.14307.14307,0,0,0,.08-.11585,1.201,1.201,0,0,0-.15166-.52239,1.65991,1.65991,0,0,0-.28787-.50342.22534.22534,0,0,0-.19379-.01826c-.45.18287-.901.2331-1.22549.40023a5.48464,5.48464,0,0,0,1.09911-.931.27039.27039,0,0,0,.08426-.25065,2.07082,2.07082,0,0,0-.436-.64175c-.08967-.11009-.1594-.21455-.21977-.28506a.30706.30706,0,0,0-.13621-.10813c-.03284-.00868-.0842-.01133-.20573.05266-.49692.37268.0887-.11029-1.30952.84081a7.85909,7.85909,0,0,0,.73588-1.12518.1339.1339,0,0,0-.04142-.15025,2.95778,2.95778,0,0,0-.71756-.39952,2.25437,2.25437,0,0,0-1.03283-.27663Z"/><path id="rect4521-3-4" class="cls-6" d="M15.67307,19.74158c-1.40256,1.5507-.04922,4.98292,1.735,5.79829,1.81825.83093,1.89363-.12513,5.05041.55186,3.54252.75972,4.03954-.657,4.26949-.6711a.4716.4716,0,0,0,.462-.4613v-.099a.45971.45971,0,0,0,.45639-.4606v-.35457h.1341a.46137.46137,0,0,0,.462-.462v-.45849a.45888.45888,0,0,0,.33773-.44234v-.32228c.17846-.08505.21364-.25548.20119-.46667l-.03475-.58946c.23716-.031.153-.35591.0888-.6375-.09055-.39707-.14962-.35645-.45768-.38073a2.23092,2.23092,0,0,1-.44982-.1039c-1.75533-.82783-5.62654-1.18559-7.15725-1.34119-.79518-.069-1.76975.00943-2.44221.01707C17.12884,18.87132,15.67307,19.43175,15.67307,19.74158Z"/><path id="path4519" class="cls-7" d="M12.89094,19.52573a12.2863,12.2863,0,0,0-.087,3.50214c.12038.59644.327,1.4617.85728.80375s-.00251-3.18619,1.28849-4.40093c.09065-.042-.0926-.21965-.13891-.24681-.22691-.1331-.86864.829-1.51627,1.73046s-.13007-1.54187-.13339-1.70722a.66642.66642,0,0,0-.27016.31861Z"/><path id="path22" class="cls-8" d="M12.06827,14.82389c-.74186.45908-1.10769.73681-1.0145,1.42665a.79489.79489,0,0,1,.04856-.12188c.10021.01559.718-.232.87287-.2587a4.7836,4.7836,0,0,1,.63806-.08741c.17438-.0125-.66935-.11746-.46838-.151.08352-.014.35538-.08822.28816-.14243a.918.918,0,0,0-.4449-.09173C11.78882,15.42441,12.07549,14.83813,12.06827,14.82389Z"/><path id="rect4521-3-4-8" class="cls-4" d="M20.7445,19.141c-.75457-.06546-1.72016.00994-2.41265.01781a5.63215,5.63215,0,0,0-1.68085.31427,3.12917,3.12917,0,0,0-.57245.25729.65532.65532,0,0,0-.114.08636.30086.30086,0,0,1-.06766.12731,2.964,2.964,0,0,0-.26619,2.87738,4.24782,4.24782,0,0,0,1.90163,2.44471,3.014,3.014,0,0,0,1.87493.30714,9.51274,9.51274,0,0,1,3.1142.22435,5.2578,5.2578,0,0,0,3.19343-.0267,1.88864,1.88864,0,0,0,.544-.35434c.06018-.055.10851-.10465.16292-.154a.38246.38246,0,0,1,.28756-.14156c.11555-.0071.17984-.06894.17984-.162v-.09882a.3009.3009,0,0,1,.29735-.30092.15224.15224,0,0,0,.15847-.15936v-.35433a.30089.30089,0,0,1,.30088-.30091h.13447a.15548.15548,0,0,0,.16114-.16114V23.125a.3009.3009,0,0,1,.2199-.29023.15346.15346,0,0,0,.11751-.15224v-.32228a.3009.3009,0,0,1,.17183-.27153c.02577-.01229.01294-.00082.01958-.0187a.47759.47759,0,0,0,.01069-.15847l-.03472-.59025a.30088.30088,0,0,1,.15046-.27955,2.3911,2.3911,0,0,0-.05431-.30893,1.05823,1.05823,0,0,0-.04185-.14511c.02136.01776-.00029.00977-.14689-.00178a2.34158,2.34158,0,0,1-.51636-.11752A.301.301,0,0,1,27.8,20.4542a14.89539,14.89539,0,0,0-3.5807-.8974C22.85352,19.34653,21.51269,19.2191,20.7445,19.141Z"/><path id="path5362-9-7" class="cls-9" d="M13.14468,15.01576a.31771.31771,0,0,0-.3999-.32914.36091.36091,0,0,0-.23609.42232A.35651.35651,0,0,0,13.14468,15.01576Z"/><path id="rect4521-3-4-2-7" class="cls-4" d="M17.42375,19.86827c-1.42739.09806-1.499,1.008-1.45413,1.98226.05767,1.25308,1.30321,2.897,2.07241,2.971A2.84856,2.84856,0,0,0,20.84132,22.454C20.95631,21.28924,19.39841,19.86826,17.42375,19.86827Z"/></g></g></g></svg>